# xmcd
# 
# Track frame offsets:
#     150
#     10633
#     25126
#     41396
#     56645
#     67287
#     81780
#     95147
#     117249
#     134462
#     146384
#     160187
#     177009
#     194498
# 
# Disc length: 2773
# 
# Revision: 1
# Processed by: cddbd v1.5.2PL0 Copyright (c) Steve Scherf et al.
# Submitted via: fre:ac v1.0.17
# 
DISCID=bd0ad30e
DTITLE=Milionário and José Rico - Nossa História
DYEAR=2010
DGENRE=Country
TTITLE0=A Carta
TTITLE1=Paixão de Um Home
TTITLE2=Sonho de Um Caminhoneiro
TTITLE3=Duas Camisas (Você Agora Vai Decidir)
TTITLE4=Filho de Ninguém
TTITLE5=Denguinho - ao vivo
TTITLE6=A Fossa
TTITLE7=Outra Noite Sem Meu Bem
TTITLE8=Meu Mundo Vazio (Sereia)
TTITLE9=Nasci Para Te Amar
TTITLE10=Apaixonado
TTITLE11=Esquina do Adeus
TTITLE12=Homens
TTITLE13=Pombinha Mensageira
EXTD=
EXTT0=
EXTT1=
EXTT2=
EXTT3=
EXTT4=
EXTT5=
EXTT6=
EXTT7=
EXTT8=
EXTT9=
EXTT10=
EXTT11=
EXTT12=
EXTT13=
PLAYORDER=
